<?xml version="1.0" encoding="UTF-8" standalone="no"?>
<!DOCTYPE svg PUBLIC "-//W3C//DTD SVG 1.1//EN" "http://www.w3.org/Graphics/SVG/1.1/DTD/svg11.dtd">
<svg version="1.1" xmlns="http://www.w3.org/2000/svg" xmlns:xlink="http://www.w3.org/1999/xlink" preserveAspectRatio="xMidYMid meet" viewBox="0 0 640 640" width="640" height="640"><defs><path d="M455 135.08C432.91 135.08 415 152.99 415 175.08C415 197.17 432.91 215.08 455 215.08C477.09 215.08 495 197.17 495 175.08C495 152.99 477.09 135.08 455 135.08Z" id="a1iDvHhDIi"></path><path d="M554.45 83.76C513.78 43.28 465.26 19.5 431.71 6.68C394.88 -7.4 353.03 1.48 325.09 29.28C315.27 39.05 236.74 117.22 226.92 126.99C197.82 155.96 189.43 200.53 206.05 237.89C211.2 249.48 216.8 260.82 222.79 271.77C201.24 293.32 28.87 465.69 7.32 487.24C2.63 491.93 0 498.29 0 504.92C0 515.92 0 603.92 0 614.92C0 628.73 11.19 639.92 25 639.92C36 639.92 124 639.92 135 639.92C148.81 639.92 160 628.73 160 614.92C160 611.92 160 596.92 160 569.92C187 569.92 202 569.92 205 569.92C218.81 569.92 230 558.72 230 544.92C230 541.92 230 526.92 230 499.92C257 499.92 272 499.92 275 499.92C288.81 499.92 300 488.73 300 474.92C300 461.11 288.81 449.92 275 449.92C268 449.92 212 449.92 205 449.92C191.19 449.92 180 461.11 180 474.92C180 477.92 180 492.92 180 519.92C153 519.92 138 519.92 135 519.92C121.19 519.92 110 531.11 110 544.92C110 547.92 110 562.92 110 589.92L50 589.92L50 515.27C183.02 382.26 256.91 308.36 271.69 293.58C279.84 285.44 281.36 272.78 275.39 262.94C266.73 248.66 258.77 233.4 251.74 217.58C243.49 199.03 247.69 176.87 262.19 162.43C272.01 152.66 350.55 74.49 360.36 64.72C374.38 50.77 395.38 46.32 413.86 53.38C442.89 64.48 484.72 84.9 519.18 119.2C553.85 153.7 574.96 196.16 586.56 225.7C593.8 244.13 589.4 265.07 575.35 279.05C565.41 288.94 485.93 368.06 475.99 377.95C461.52 392.34 439.93 396.55 420.97 388.67C405.34 382.17 390.2 374.44 375.97 365.71C364.21 358.49 348.81 362.17 341.59 373.94C334.37 385.71 338.05 401.1 349.82 408.33C366.26 418.42 383.74 427.34 401.77 434.84C439.45 450.51 482.43 442.09 511.26 413.38C521.2 403.5 600.69 324.38 610.62 314.49C638.8 286.45 647.62 244.42 633.1 207.42C619.75 173.43 595.27 124.38 554.45 83.76Z" id="b4M2xVuwYf"></path></defs><g><g><g><use xlink:href="#a1iDvHhDIi" opacity="0.26" fill="#000000" fill-opacity="1"></use><g><use xlink:href="#a1iDvHhDIi" opacity="0.26" fill-opacity="0" stroke="#000000" stroke-width="1" stroke-opacity="0"></use></g></g><g><use xlink:href="#b4M2xVuwYf" opacity="0.26" fill="#000000" fill-opacity="1"></use><g><use xlink:href="#b4M2xVuwYf" opacity="0.26" fill-opacity="0" stroke="#000000" stroke-width="1" stroke-opacity="0"></use></g></g></g></g></svg>