<?xml version="1.0" encoding="UTF-8" standalone="no"?>
<!DOCTYPE svg PUBLIC "-//W3C//DTD SVG 1.1//EN" "http://www.w3.org/Graphics/SVG/1.1/DTD/svg11.dtd">
<svg version="1.1" xmlns="http://www.w3.org/2000/svg" xmlns:xlink="http://www.w3.org/1999/xlink" preserveAspectRatio="xMidYMid meet" viewBox="0 0 640 640" width="640" height="640"><defs><path d="M56.25 95C25.17 95 0 120.33 0 151.25C0 185 0 455 0 488.75C0 519.86 25.36 545 56.25 545C109 545 531 545 583.75 545C614.57 545 640 519.96 640 488.75C640 455 640 185 640 151.25C640 120.38 614.93 95 583.75 95C478.25 95 109 95 56.25 95ZM359.78 347.46C349.15 358.08 335.03 363.93 320 363.93C304.98 363.93 290.85 358.08 280.19 347.42C275.6 342.86 80 148.29 64.13 132.5C98.24 132.5 268.83 132.5 575.87 132.5C436.36 271.28 364.33 342.93 359.78 347.46ZM37.5 158.91L199.55 320.1L37.5 481.12L37.5 158.91ZM226.14 346.55C242.68 363 251.87 372.15 253.71 373.97C271.42 391.68 294.96 401.43 320 401.43C345.04 401.43 368.58 391.68 386.26 374.01C388.1 372.18 397.3 363.02 413.87 346.55L575.85 507.5L64.15 507.5L226.14 346.55ZM440.45 320.1L602.5 158.91L602.5 481.12L440.45 320.1Z" id="e1nyyUcIdz"></path></defs><g><g><g><use xlink:href="#e1nyyUcIdz" opacity="0.18" fill="#000000" fill-opacity="1"></use><g><use xlink:href="#e1nyyUcIdz" opacity="0.18" fill-opacity="0" stroke="#000000" stroke-width="1" stroke-opacity="0"></use></g></g></g></g></svg>